# xmcd
#
# Track frame offsets: 
#        150
#        15830
#        31155
#        43352
#        54710
#        62625
#        74772
#        108277
#        125230
#        141645
#
# Disc length: 2038 seconds
#
# Revision: 0
# Processed by: cddbd v1.4PL0 Copyright (c) Steve Scherf et al.
# Submitted via: ExactAudioCopy v0.90b3
#
DISCID=9907f40a
DTITLE=Jerry Clower - Great Moments With Jerry Clower
DYEAR=1900
DGENRE=Comedy
TTITLE0=Marcel Is In Trouble
TTITLE1=Mr. Duval Scott
TTITLE2=Where Will You Be When You Get Where You're Going
TTITLE3=Holding Pattern
TTITLE4=The Fish And The Edsel
TTITLE5=The Dog And The Bear
TTITLE6=A Coon Huntin' Story
TTITLE7=Foot Races, Shot Put, And Concessions
TTITLE8=The Ike And Mike Contest
TTITLE9=Udell And Ole Skeets
EXTD=
EXTT0=
EXTT1=
EXTT2=
EXTT3=
EXTT4=
EXTT5=
EXTT6=
EXTT7=
EXTT8=
EXTT9=
PLAYORDER=
